<?xml version="1.0" encoding="UTF-8" standalone="no"?>
<!-- Created with Inkscape (http://www.inkscape.org/) -->

<svg
   xmlns:dc="http://purl.org/dc/elements/1.1/"
   xmlns:cc="http://creativecommons.org/ns#"
   xmlns:rdf="http://www.w3.org/1999/02/22-rdf-syntax-ns#"
   xmlns:svg="http://www.w3.org/2000/svg"
   xmlns="http://www.w3.org/2000/svg"
   xmlns:sodipodi="http://sodipodi.sourceforge.net/DTD/sodipodi-0.dtd"
   xmlns:inkscape="http://www.inkscape.org/namespaces/inkscape"
   width="210mm"
   height="297mm"
   viewBox="0 0 210 297"
   version="1.1"
   id="svg8"
   inkscape:version="0.92.4 (5da689c313, 2019-01-14)"
   sodipodi:docname="dragon.svg">
  <defs
     id="defs2" />
  <sodipodi:namedview
     id="base"
     pagecolor="#ffffff"
     bordercolor="#666666"
     borderopacity="1.0"
     inkscape:pageopacity="0.0"
     inkscape:pageshadow="2"
     inkscape:zoom="7.9195959"
     inkscape:cx="367.94372"
     inkscape:cy="539.39984"
     inkscape:document-units="mm"
     inkscape:current-layer="layer1"
     showgrid="false"
     inkscape:window-width="3840"
     inkscape:window-height="2045"
     inkscape:window-x="0"
     inkscape:window-y="66"
     inkscape:window-maximized="1" />
  <metadata
     id="metadata5">
    <rdf:RDF>
      <cc:Work
         rdf:about="">
        <dc:format>image/svg+xml</dc:format>
        <dc:type
           rdf:resource="http://purl.org/dc/dcmitype/StillImage" />
        <dc:title></dc:title>
      </cc:Work>
    </rdf:RDF>
  </metadata>
  <g
     inkscape:label="Layer 1"
     inkscape:groupmode="layer"
     id="layer1">
    <g
       id="g1072"
       inkscape:export-xdpi="265.043"
       inkscape:export-ydpi="265.043">
      <path
         sodipodi:nodetypes="ccccccc"
         inkscape:connector-curvature="0"
         id="path940"
         d="m 89.769345,162.78153 -4.795572,3.68526 c 0,0 1.063055,2.50409 2.10249,3.16555 1.535528,0.63784 3.151467,0.35436 3.151467,0.35436 0,0 1.615939,0.28348 3.151467,-0.35436 1.039435,-0.66146 2.10249,-3.16555 2.10249,-3.16555 l -4.795572,-3.68526"
         style="fill:#ffd42a;stroke:#000000;stroke-width:1;stroke-linecap:butt;stroke-linejoin:miter;stroke-miterlimit:4;stroke-dasharray:none;stroke-opacity:1" />
      <path
         sodipodi:nodetypes="cccc"
         inkscape:connector-curvature="0"
         id="path932"
         d="m 80.816033,141.78022 c -4.103816,-1.36066 -4.433813,-2.83472 -5.220796,-4.4176 -1.039435,-1.9135 -2.244234,-3.66164 -0.850446,-4.016 1.859875,0.0295 3.482342,4.48016 7.677642,4.60664"
         style="fill:#ffeeaa;stroke:#000000;stroke-width:1;stroke-linecap:butt;stroke-linejoin:miter;stroke-miterlimit:4;stroke-dasharray:none;stroke-opacity:1" />
      <path
         sodipodi:nodetypes="cccc"
         inkscape:connector-curvature="0"
         id="path932-4"
         d="m 99.639427,141.78022 c 4.103813,-1.36066 4.433813,-2.83472 5.220793,-4.4176 1.03944,-1.9135 2.24424,-3.66164 0.85045,-4.016 -1.85988,0.0295 -3.48234,4.48016 -7.677643,4.60664"
         style="fill:#ffeeaa;stroke:#000000;stroke-width:1;stroke-linecap:butt;stroke-linejoin:miter;stroke-miterlimit:4;stroke-dasharray:none;stroke-opacity:1" />
      <path
         sodipodi:nodetypes="ccccccccccccccccccc"
         inkscape:connector-curvature="0"
         id="path928-1"
         d="m 93.679789,165.88382 c 0,0 2.817711,1.2208 6.24312,-1.14155 0.922441,-6.82716 3.035731,-9.97312 3.047431,-9.82738 l 3.96875,-1.88988 -2.22061,-3.16555 2.59859,-4.77195 c 0,0 -3.16555,1.55915 -7.890255,-2.69308 0,0 0.188987,-4.86644 -3.685267,-5.76413 -1.658376,-0.50883 -5.513818,1.08667 -5.513818,1.08667 0,0 -3.855442,-1.5955 -5.513818,-1.08667 -3.874254,0.89769 -3.685267,5.76413 -3.685267,5.76413 -4.724704,4.25223 -7.890254,2.69308 -7.890254,2.69308 l 2.598587,4.77195 -2.220611,3.16555 3.968751,1.88988 c 0.01166,-0.14574 2.12499,3.00022 3.047433,9.82738 3.425409,2.36235 6.24312,1.14155 6.24312,1.14155 l 3.452059,-1.37778 z"
         style="fill:#ff5555;stroke:#000000;stroke-width:1;stroke-linecap:butt;stroke-linejoin:miter;stroke-miterlimit:4;stroke-dasharray:none;stroke-opacity:1" />
      <path
         sodipodi:nodetypes="ccccc"
         inkscape:connector-curvature="0"
         id="path930"
         d="m 81.926338,162.80515 c 0,0 -1.228422,-0.59059 -4.323103,0.94494 -2.651155,1.24771 -4.104436,2.29628 -5.811383,1.25205 -1.796119,-1.25133 -1.515836,-2.86633 -0.933129,-4.03962 0.94494,-1.63003 2.586774,-0.83864 2.586774,-0.83864"
         style="fill:none;stroke:#000000;stroke-width:1;stroke-linecap:round;stroke-linejoin:miter;stroke-miterlimit:4;stroke-dasharray:none;stroke-opacity:1" />
      <path
         sodipodi:nodetypes="ccccc"
         inkscape:connector-curvature="0"
         id="path936"
         d="m 87.359748,156.29687 0.284321,-7.63325 c -1.536864,0.26428 -2.488248,-1.12443 -4.344702,-1.52285 -1.337647,-0.28035 -2.300292,-0.46431 -0.9172,1.67885 0.722595,1.29427 3.933528,3.0648 5.116805,1.44494"
         style="fill:#00ffff;stroke:#000000;stroke-width:1;stroke-linecap:round;stroke-linejoin:miter;stroke-miterlimit:4;stroke-dasharray:none;stroke-opacity:1" />
      <path
         sodipodi:nodetypes="csc"
         inkscape:connector-curvature="0"
         id="path938"
         d="m 84.879277,160.46642 c 0,0 0.188988,-1.65365 1.6064,-1.65365 1.41741,0 1.700891,1.7009 1.700891,1.7009"
         style="fill:none;stroke:#000000;stroke-width:1;stroke-linecap:round;stroke-linejoin:miter;stroke-miterlimit:4;stroke-dasharray:none;stroke-opacity:1" />
      <path
         sodipodi:nodetypes="ccccc"
         inkscape:connector-curvature="0"
         id="path934"
         d="m 87.926712,147.6861 c -1.342543,2.23248 -1.297075,-0.8162 -7.016184,-0.93316 -6.661831,-0.34254 -13.394531,-7.71307 -8.220982,-5.01999 5.763172,3.21345 10.965821,0.97334 14.079613,2.18517 2.651598,1.04949 2.007147,2.20613 1.157553,3.76798 z"
         style="fill:#ffd42a;stroke:#000000;stroke-width:1;stroke-linecap:round;stroke-linejoin:miter;stroke-miterlimit:4;stroke-dasharray:none;stroke-opacity:1" />
      <path
         sodipodi:nodetypes="ccccc"
         inkscape:connector-curvature="0"
         id="path930-4"
         d="m 98.529122,162.80515 c 0,0 1.228422,-0.59059 4.323098,0.94494 2.65116,1.24771 4.10444,2.29628 5.81139,1.25205 1.79612,-1.25133 1.51583,-2.86633 0.93313,-4.03962 -0.94494,-1.63003 -2.58678,-0.83864 -2.58678,-0.83864"
         style="fill:none;stroke:#000000;stroke-width:1;stroke-linecap:round;stroke-linejoin:miter;stroke-miterlimit:4;stroke-dasharray:none;stroke-opacity:1" />
      <path
         sodipodi:nodetypes="ccccc"
         inkscape:connector-curvature="0"
         id="path936-6"
         d="m 93.095712,156.29687 -0.284321,-7.63325 c 1.536864,0.26428 2.488248,-1.12443 4.344702,-1.52285 1.337647,-0.28035 2.300292,-0.46431 0.9172,1.67885 -0.722595,1.29427 -3.933528,3.0648 -5.116805,1.44494"
         style="fill:#00ffff;stroke:#000000;stroke-width:1;stroke-linecap:round;stroke-linejoin:miter;stroke-miterlimit:4;stroke-dasharray:none;stroke-opacity:1" />
      <path
         sodipodi:nodetypes="csc"
         inkscape:connector-curvature="0"
         id="path938-9"
         d="m 95.576183,160.46642 c 0,0 -0.188988,-1.65365 -1.6064,-1.65365 -1.41741,0 -1.700891,1.7009 -1.700891,1.7009"
         style="fill:none;stroke:#000000;stroke-width:1;stroke-linecap:round;stroke-linejoin:miter;stroke-miterlimit:4;stroke-dasharray:none;stroke-opacity:1" />
      <path
         sodipodi:nodetypes="ccccc"
         inkscape:connector-curvature="0"
         id="path934-4"
         d="m 92.528748,147.6861 c 1.342543,2.23248 1.297075,-0.8162 7.016184,-0.93316 6.661828,-0.34254 13.394528,-7.71307 8.220978,-5.01999 -5.76317,3.21345 -10.965817,0.97334 -14.079609,2.18517 -2.651598,1.04949 -2.007147,2.20613 -1.157553,3.76798 z"
         style="fill:#ffd42a;stroke:#000000;stroke-width:1;stroke-linecap:round;stroke-linejoin:miter;stroke-miterlimit:4;stroke-dasharray:none;stroke-opacity:1" />
    </g>
  </g>
</svg>
